<svg width="32" height="32" viewBox="0 0 32 32" fill="none" xmlns="http://www.w3.org/2000/svg">
    <circle cx="16" cy="16" r="9.25" stroke="#EA5959" stroke-width="1.5"/>
    <path d="M15.16 17.39L14.8 13.22L14.71 11H17.29L17.2 13.22L16.84 17.39H15.16ZM16 21.23C15.57 21.23 15.21 21.08 14.92 20.78C14.64 20.47 14.5 20.1 14.5 19.67C14.5 19.23 14.64 18.86 14.92 18.56C15.21 18.26 15.57 18.11 16 18.11C16.44 18.11 16.8 18.26 17.08 18.56C17.36 18.86 17.5 19.23 17.5 19.67C17.5 20.1 17.36 20.47 17.08 20.78C16.8 21.08 16.44 21.23 16 21.23Z" fill="#EA5959"/>
</svg>

