<?xml version="1.0" standalone="no"?>
<!DOCTYPE svg PUBLIC "-//W3C//DTD SVG 20010904//EN"
 "http://www.w3.org/TR/2001/REC-SVG-20010904/DTD/svg10.dtd">
<svg version="1.0" xmlns="http://www.w3.org/2000/svg"
 width="1024.000000pt" height="1024.000000pt" viewBox="0 0 1024.000000 1024.000000"
 preserveAspectRatio="xMidYMid meet">
<g transform="translate(0.000000,1024.000000) scale(0.100000,-0.100000)"
fill="#000000" stroke="none">
<path d="M870 10233 c-222 -37 -416 -133 -568 -280 -140 -136 -216 -271 -280
-493 -15 -50 -16 -460 -19 -4305 -1 -2756 1 -4268 8 -4300 5 -27 12 -63 15
-79 2 -16 14 -57 25 -90 116 -348 416 -606 779 -671 62 -12 794 -14 4290 -14
4071 -1 4218 0 4305 18 116 24 172 43 270 92 102 52 172 104 260 195 79 81 77
79 126 154 43 67 80 145 108 228 53 157 50 -120 48 4462 -3 4613 1 4259 -52
4415 -51 152 -167 325 -283 422 -31 26 -59 51 -62 54 -3 3 -39 26 -80 51 -96
59 -210 104 -324 128 -89 19 -205 19 -4316 18 -2324 0 -4236 -3 -4250 -5z"/>
</g>
</svg>
